<svg width="26" height="19" viewBox="0 0 26 19" fill="none" xmlns="http://www.w3.org/2000/svg">
<path d="M0 18.6734V14.7808H3.9758V18.6734H0Z" fill="#2E8EFF"/>
<path d="M8.27078 18.6734V0H15.9482C17.9041 0 19.5675 0.335721 20.9385 1.00716C22.3095 1.67861 23.3605 2.70392 24.0917 4.0831C24.8412 5.44413 25.2159 7.19532 25.2159 9.33668C25.2159 11.4599 24.8412 13.2111 24.0917 14.5903C23.3605 15.9694 22.3095 16.9947 20.9385 17.6662C19.5675 18.3376 17.9041 18.6734 15.9482 18.6734H8.27078ZM12.3563 15.3252H15.9208C16.7433 15.3252 17.4745 15.2073 18.1143 14.9713C18.7541 14.7354 19.2842 14.3906 19.7046 13.937C20.1251 13.4651 20.445 12.8844 20.6643 12.1948C20.8837 11.4871 20.9933 10.6705 20.9933 9.74499V8.92837C20.9933 8.00287 20.8837 7.19532 20.6643 6.50573C20.445 5.79799 20.1251 5.21729 19.7046 4.76361C19.2842 4.29179 18.7541 3.93792 18.1143 3.70201C17.4745 3.44795 16.7433 3.32092 15.9208 3.32092H12.3563V15.3252Z" fill="#2E8EFF"/>
</svg>
