<svg width="91" height="19" viewBox="0 0 91 19" fill="none" xmlns="http://www.w3.org/2000/svg">
<path d="M0 18.6734V14.7808H3.9758V18.6734H0Z" fill="#2E8EFF"/>
<path d="M8.27078 18.6734V0H15.9482C17.9041 0 19.5675 0.335721 20.9385 1.00716C22.3095 1.67861 23.3605 2.70392 24.0917 4.0831C24.8412 5.44413 25.2159 7.19532 25.2159 9.33668C25.2159 11.4599 24.8412 13.2111 24.0917 14.5903C23.3605 15.9694 22.3095 16.9947 20.9385 17.6662C19.5675 18.3376 17.9041 18.6734 15.9482 18.6734H8.27078ZM12.3563 15.3252H15.9208C16.7433 15.3252 17.4745 15.2073 18.1143 14.9713C18.7541 14.7354 19.2842 14.3906 19.7046 13.937C20.1251 13.4651 20.445 12.8844 20.6643 12.1948C20.8837 11.4871 20.9933 10.6705 20.9933 9.74499V8.92837C20.9933 8.00287 20.8837 7.19532 20.6643 6.50573C20.445 5.79799 20.1251 5.21729 19.7046 4.76361C19.2842 4.29179 18.7541 3.93792 18.1143 3.70201C17.4745 3.44795 16.7433 3.32092 15.9208 3.32092H12.3563V15.3252Z" fill="#2E8EFF"/>
<path d="M34.7649 19C33.1746 19 31.8402 18.7369 30.7617 18.2106C29.6832 17.6662 28.8698 16.8405 28.3214 15.7335C27.773 14.6266 27.4988 13.2202 27.4988 11.5143C27.4988 9.79035 27.773 8.38396 28.3214 7.29513C28.8698 6.18816 29.6741 5.37154 30.7343 4.84527C31.8128 4.30086 33.1289 4.02865 34.6826 4.02865C36.145 4.02865 37.3789 4.29179 38.3843 4.81805C39.3896 5.32617 40.1482 6.12464 40.6601 7.21347C41.1719 8.28415 41.4278 9.6724 41.4278 11.3782V12.3582H31.3649C31.4015 13.1929 31.5294 13.9007 31.7488 14.4814C31.9864 15.0621 32.3429 15.4976 32.8181 15.788C33.3117 16.0602 33.9606 16.1963 34.7649 16.1963C35.2036 16.1963 35.5966 16.1418 35.9439 16.033C36.3095 15.9241 36.6203 15.7607 36.8762 15.543C37.1321 15.3252 37.3332 15.053 37.4794 14.7264C37.6257 14.3997 37.6988 14.0277 37.6988 13.6103H41.4278C41.4278 14.5177 41.2633 15.3071 40.9343 15.9785C40.6052 16.65 40.1482 17.2125 39.5633 17.6662C38.9783 18.1017 38.2746 18.4374 37.452 18.6734C36.6477 18.8911 35.752 19 34.7649 19ZM31.4197 9.96275H37.5068C37.5068 9.41834 37.4337 8.94651 37.2875 8.54728C37.1595 8.14804 36.9767 7.82139 36.7391 7.56734C36.5015 7.31328 36.209 7.1318 35.8617 7.02292C35.5326 6.89589 35.1579 6.83238 34.7375 6.83238C34.0429 6.83238 33.4579 6.95033 32.9827 7.18625C32.5257 7.40401 32.1692 7.74881 31.9133 8.22063C31.6757 8.67431 31.5111 9.25501 31.4197 9.96275Z" fill="#2E8EFF"/>
<path d="M44.2241 18.6734V4.3553H47.3774L47.679 6.31519H47.8709C48.1999 5.84336 48.593 5.43505 49.0499 5.09026C49.5252 4.74546 50.0553 4.48233 50.6403 4.30086C51.2252 4.11939 51.865 4.02865 52.5596 4.02865C53.5102 4.02865 54.3419 4.20105 55.0548 4.54584C55.7677 4.89064 56.3161 5.43505 56.6999 6.17908C57.1021 6.92311 57.3032 7.89398 57.3032 9.09169V18.6734H53.4919V9.69054C53.4919 9.23687 53.437 8.85578 53.3274 8.54728C53.2177 8.22063 53.0532 7.9575 52.8338 7.75788C52.6327 7.54011 52.3768 7.38586 52.0661 7.29513C51.7553 7.20439 51.408 7.15903 51.0241 7.15903C50.4575 7.15903 49.9456 7.29513 49.4887 7.56734C49.0317 7.83954 48.6752 8.21156 48.4193 8.68338C48.1634 9.15521 48.0354 9.69962 48.0354 10.3166V18.6734H44.2241Z" fill="#2E8EFF"/>
<path d="M65.0234 19C64.1094 19 63.3691 18.8367 62.8024 18.51C62.2358 18.1834 61.8245 17.7479 61.5686 17.2034C61.3127 16.6409 61.1847 16.0239 61.1847 15.3524V7.26791H59.4024V4.3553H61.3218L62.0347 0.272206H64.996V4.3553H67.6282V7.26791H64.996V14.7264C64.996 15.1619 65.0965 15.4976 65.2976 15.7335C65.4987 15.9513 65.8277 16.0602 66.2847 16.0602H67.6282V18.5645C67.4089 18.6371 67.153 18.7006 66.8605 18.755C66.568 18.8276 66.2573 18.882 65.9282 18.9183C65.5992 18.9728 65.2976 19 65.0234 19Z" fill="#2E8EFF"/>
<path d="M74.7517 19C73.2893 19 72.1286 18.6008 71.2694 17.8023C70.4103 17.0038 69.9807 15.7154 69.9807 13.937V4.3553H73.792V13.3109C73.792 13.7827 73.8469 14.1819 73.9565 14.5086C74.0662 14.8171 74.2216 15.0712 74.4227 15.2708C74.642 15.4704 74.9071 15.6156 75.2178 15.7063C75.5286 15.797 75.8759 15.8424 76.2598 15.8424C76.8264 15.8424 77.3382 15.7063 77.7952 15.4341C78.2522 15.1619 78.6087 14.7899 78.8646 14.3181C79.1205 13.8281 79.2485 13.2837 79.2485 12.6848V4.3553H83.0597V18.6734H79.9339L79.6598 16.7135H79.4678C79.1205 17.1671 78.7092 17.5664 78.2339 17.9112C77.777 18.256 77.256 18.5191 76.671 18.7006C76.0861 18.9002 75.4463 19 74.7517 19Z" fill="#2E8EFF"/>
<path d="M87.0242 18.6734V14.7808H91V18.6734H87.0242Z" fill="#2E8EFF"/>
</svg>
