<svg width="17" height="18" viewBox="0 0 17 18" fill="none" xmlns="http://www.w3.org/2000/svg">
<path fill-rule="evenodd" clip-rule="evenodd" d="M7.67073 1.7439C4.12129 1.7439 1.2439 4.62129 1.2439 8.17073C1.2439 11.7202 4.12129 14.5976 7.67073 14.5976C11.2202 14.5976 14.0976 11.7202 14.0976 8.17073C14.0976 4.62129 11.2202 1.7439 7.67073 1.7439ZM0 8.17073C0 3.9343 3.4343 0.5 7.67073 0.5C11.9072 0.5 15.3415 3.9343 15.3415 8.17073C15.3415 12.4072 11.9072 15.8415 7.67073 15.8415C3.4343 15.8415 0 12.4072 0 8.17073Z" fill="#525252"/>
<path fill-rule="evenodd" clip-rule="evenodd" d="M12.2065 12.7066C12.4494 12.4637 12.8432 12.4637 13.0861 12.7066L16.8178 16.4383C17.0607 16.6812 17.0607 17.075 16.8178 17.3179C16.5749 17.5607 16.1811 17.5607 15.9382 17.3179L12.2065 13.5862C11.9636 13.3433 11.9636 12.9495 12.2065 12.7066Z" fill="#525252"/>
</svg>
