<svg width="150" height="34" viewBox="0 0 136 34" fill="none" xmlns="http://www.w3.org/2000/svg">
<path d="M19.3269 10.2105C19.1716 11.1508 19.3657 11.9778 19.9093 12.6915C20.4528 13.3938 21.2682 14.0452 22.3553 14.6456C23.4535 15.2461 24.6793 15.8578 26.0326 16.4809C27.3971 17.1039 28.5729 17.727 29.5602 18.3501C30.5586 18.9732 31.385 19.7378 32.0395 20.6441C32.694 21.5504 33.0102 22.6153 32.988 23.8388C32.9547 25.3115 32.5498 26.5407 31.7733 27.5262C30.9968 28.5118 29.9818 29.2425 28.7282 29.7183C27.4858 30.1941 26.138 30.4434 24.6848 30.466C22.921 30.4887 21.3514 30.2338 19.9758 29.7013C18.6114 29.1576 17.6629 28.0927 17.1305 26.5067C16.9752 26.0195 16.9585 25.5607 17.0805 25.1302C17.2026 24.6998 17.4411 24.3882 17.796 24.1956C18.0956 24.0484 18.445 24.0031 18.8443 24.0597C19.2326 24.1163 19.5266 24.3486 19.7262 24.7564C19.9259 25.1642 20.1478 25.793 20.3918 26.6426C20.5804 27.311 20.8189 27.8774 21.1073 28.3419C21.3957 28.8064 21.845 29.1915 22.4551 29.4974C23.0763 29.8033 23.9083 29.9562 24.9511 29.9562C26.0604 29.9449 27.1087 29.6787 28.0959 29.1576C29.0943 28.6364 29.8708 27.9624 30.4255 27.1354C30.9912 26.2971 31.2186 25.4135 31.1077 24.4845C31.0079 23.5442 30.4976 22.6889 29.5769 21.9186C28.9002 21.3408 27.8574 20.6611 26.4486 19.8794C25.0398 19.0978 23.6476 18.2878 22.2721 17.4495C20.8965 16.5998 19.7928 15.7219 18.9608 14.8156C18.1288 13.8979 17.6907 12.901 17.6463 11.8248C17.5908 10.3634 17.9624 9.1626 18.7611 8.22232C19.5598 7.28205 20.6081 6.64765 21.906 6.31912C23.215 5.97926 24.585 5.95094 26.016 6.23416C27.4581 6.50604 28.7449 7.06114 29.8764 7.89946C30.2535 8.18267 30.5974 8.53953 30.908 8.97001C31.2186 9.38917 31.4128 9.81399 31.4904 10.2445C31.5681 10.6636 31.5071 11.0375 31.3074 11.366C31.1188 11.6832 30.8581 11.9041 30.5253 12.0287C30.2036 12.142 29.8819 12.1533 29.5602 12.0627C29.2496 11.9721 28.9889 11.7908 28.7782 11.5189C28.5785 11.2471 28.4787 10.9242 28.4787 10.5504C28.4787 10.2105 28.5729 9.89896 28.7615 9.61574C28.695 8.90204 28.4121 8.30162 27.9129 7.81449C27.4137 7.32737 26.8258 6.96485 26.1491 6.72695C25.4835 6.48905 24.8568 6.35877 24.2688 6.33611C23.0375 6.30213 21.9559 6.64199 21.0241 7.35569C20.1034 8.05806 19.5376 9.00966 19.3269 10.2105Z" fill="#E6E6E6"/>
<path d="M48.9953 27.2374C49.6276 27.4073 50.0214 27.8151 50.1767 28.4609C50.2876 28.9706 50.1822 29.4238 49.8605 29.8203C49.5499 30.2055 49.1506 30.398 48.6625 30.398C48.6957 30.398 48.6847 30.398 48.6292 30.398H35.5006V5.97926H37.5306V29.8713H46.1C46.3884 29.8713 46.6269 29.7693 46.8155 29.5654C47.0041 29.3501 47.0983 29.1009 47.0983 28.8177C47.0983 28.8064 47.0983 28.8007 47.0983 28.8007C47.0983 28.2909 47.2869 27.8774 47.6641 27.5602C48.0523 27.243 48.4961 27.1354 48.9953 27.2374Z" fill="#E6E6E6"/>
<path d="M59.3284 6.01325H61.5082L68.6632 30.415H66.3171L62.7728 18.3501C60.6541 18.9845 58.8015 20.038 57.2152 21.5108C55.64 22.9722 54.5251 24.6771 53.8707 26.6256L53.854 26.6426C53.8096 26.8012 53.8318 26.9485 53.9206 27.0844C54.0204 27.209 54.1535 27.277 54.3199 27.2883C54.3754 27.2883 54.4253 27.2883 54.4697 27.2883C54.8025 27.345 55.0853 27.4979 55.3183 27.7472C55.5623 27.9964 55.7066 28.2966 55.7509 28.6478C55.8064 29.1122 55.6788 29.5201 55.3682 29.8713C55.0687 30.2225 54.6915 30.398 54.2367 30.398C53.8152 30.398 53.4547 30.2451 53.1552 29.9392C52.8556 29.6334 52.7059 29.2652 52.7059 28.8347C52.7059 28.7101 52.7225 28.5628 52.7558 28.3929L59.2452 6.30213L59.3284 6.01325ZM54.7026 23.7538C55.5124 22.2924 56.5885 21.018 57.9307 19.9304C59.2841 18.8316 60.8149 18.0159 62.5232 17.4834L59.5281 7.3217L54.7026 23.7538Z" fill="#E6E6E6"/>
<path d="M81.5756 5.97926C81.9638 5.97926 82.2966 6.1322 82.5739 6.43807C82.8624 6.74394 83.0066 7.11212 83.0066 7.54261C83.0066 7.97309 82.8624 8.34127 82.5739 8.64715C82.2966 8.95302 81.9638 9.10595 81.5756 9.10595C81.5645 9.10595 81.5589 9.10595 81.5589 9.10595C81.1596 9.09463 80.799 9.20791 80.4774 9.44581C80.1667 9.67238 79.9615 9.97826 79.8617 10.3634L74.953 30.2111L74.8865 30.5H73.0561L67.0159 6.09821H68.996C70.6933 12.9633 72.5957 20.6668 74.7034 29.2085C80.5605 5.52045 82.3743 -1.79782 80.1446 7.25373C80.2333 6.87989 80.4052 6.57401 80.6604 6.33611C80.9266 6.09821 81.2317 5.97926 81.5756 5.97926Z" fill="#E6E6E6"/>
<path d="M85.5191 30.1601V5.75835H87.5492V30.1601H85.5191Z" fill="#E6E6E6"/>
<path d="M101.709 6.01325C103.196 6.12653 104.583 6.55136 105.869 7.28771C107.156 8.01274 108.26 8.98134 109.181 10.1935C109.491 10.59 109.597 11.0431 109.497 11.5529C109.419 11.8815 109.247 12.1647 108.981 12.4026C108.726 12.6405 108.432 12.7708 108.099 12.7934C107.578 12.8274 107.151 12.6575 106.818 12.2836C106.485 11.8985 106.357 11.434 106.435 10.8902C106.568 10.3124 106.907 9.91595 107.45 9.70071C107.461 9.70071 107.467 9.69504 107.467 9.68371C107.644 9.62707 107.75 9.50812 107.783 9.32686C107.816 9.13428 107.766 8.97568 107.633 8.85106C107.389 8.62449 107.145 8.42057 106.901 8.23932C105.548 7.21974 104.033 6.73261 102.358 6.77793C100.683 6.81191 99.0527 7.33869 97.4664 8.35827C95.8801 9.37784 94.5433 10.7883 93.4562 12.5895C92.3691 14.4021 91.698 16.3223 91.4428 18.3501C91.1988 20.3779 91.3763 22.2698 91.9753 24.0257C92.5743 25.7703 93.5505 27.1467 94.9039 28.155C96.0908 29.0499 97.4164 29.5371 98.8807 29.6164C100.356 29.6843 101.815 29.3615 103.257 28.6478C104.699 27.9341 105.986 26.8862 107.117 25.5041C107.45 25.776 107.822 25.9233 108.232 25.9459C108.632 25.9799 109.009 25.8949 109.364 25.691C108.265 27.2544 106.895 28.4609 105.254 29.3105C103.623 30.1488 101.898 30.5 100.079 30.3641C98.1153 30.2281 96.3404 29.5597 94.7541 28.3589C93.1789 27.1467 91.9698 25.5777 91.1267 23.6519C90.2836 21.7147 89.9342 19.6415 90.0784 17.4325C90.2226 15.2234 90.8438 13.2239 91.942 11.434C93.0402 9.63273 94.4546 8.24498 96.1851 7.27072C97.9156 6.29646 99.7571 5.87731 101.709 6.01325Z" fill="#E6E6E6"/>
<path d="M118.665 6.01325H120.845L128 30.415H125.654L122.11 18.3501C119.991 18.9845 118.138 20.038 116.552 21.5108C114.977 22.9722 113.862 24.6771 113.207 26.6256L113.191 26.6426C113.146 26.8012 113.169 26.9485 113.257 27.0844C113.357 27.209 113.49 27.277 113.657 27.2883C113.712 27.2883 113.762 27.2883 113.806 27.2883C114.139 27.345 114.422 27.4979 114.655 27.7472C114.899 27.9964 115.043 28.2966 115.088 28.6478C115.143 29.1122 115.016 29.5201 114.705 29.8713C114.405 30.2225 114.028 30.398 113.573 30.398C113.152 30.398 112.791 30.2451 112.492 29.9392C112.192 29.6334 112.043 29.2652 112.043 28.8347C112.043 28.7101 112.059 28.5628 112.093 28.3929L118.582 6.30213L118.665 6.01325ZM114.039 23.7538C114.849 22.2924 115.925 21.018 117.267 19.9304C118.621 18.8316 120.152 18.0159 121.86 17.4834L118.865 7.3217L114.039 23.7538Z" fill="#E6E6E6"/>
</svg>
