<svg width="150" height="34" viewBox="0 0 151 50" fill="none" xmlns="http://www.w3.org/2000/svg">
<path d="M56 19.9797H36.0203L48.6776 7.32235L45.128 3.7723L31.0002 17.9005V0H25.9797V19.9797L13.3224 7.32235L9.7723 10.872L23.9005 25.0002H6V30.0203H25.9797L13.3224 42.6776L16.872 46.2277L31.0002 32.0999V50H36.0203V30.0203L48.6776 42.6776L52.2277 39.128L38.0999 25.0002H56V19.9797Z" fill="#E6E6E6"/>
<path d="M64 37.5V12.5H68.5934V37.5H64Z" fill="#E6E6E6"/>
<path d="M74.3441 37.5V12.5H98.2711V16.1319H78.9375V23.2898H97.5855V26.6749H78.9375V33.8329H98.2711V37.5H74.3441Z" fill="#E6E6E6"/>
<path d="M102.489 37.5L115.961 12.5H121.789L135.192 37.5H130.29L127.308 31.7877H110.408L107.426 37.5H102.489ZM112.259 28.2616H125.456L118.875 15.603L112.259 28.2616Z" fill="#E6E6E6"/>
<path d="M139.618 37.5V33.1629H145V37.5H139.618Z" fill="#E6E6E6"/>
</svg>
