<svg width="150" height="34" viewBox="0 0 157 34" fill="none" xmlns="http://www.w3.org/2000/svg">
<path d="M15 16.9998C15 14.1651 17.5943 11.8064 21.5896 10.5896C22.8064 6.59433 25.1651 4 28.0002 4C30.8352 4 33.1936 6.59433 34.4104 10.5896C38.4057 11.8064 41 14.1654 41 16.9998C41 19.8343 38.4057 22.1936 34.4104 23.4104C33.1936 27.406 30.8349 30 28.0002 30C25.1654 30 22.8067 27.4057 21.5896 23.4104C17.594 22.1936 15 19.8349 15 16.9998ZM28.0002 7.2013C27.1409 7.2013 26.1117 8.1412 25.2992 9.84429C26.1658 9.74922 27.0683 9.69959 28.0002 9.69959C28.9321 9.69959 29.8345 9.74922 30.7008 9.84429C29.8886 8.14088 28.8591 7.2013 28.0002 7.2013ZM23.9009 16.9998C23.9009 18.3815 24.0254 19.6403 24.2367 20.763C25.3594 20.9743 26.6182 21.0988 27.9998 21.0988C29.3815 21.0988 30.6403 20.9743 31.763 20.763C31.9743 19.6403 32.0988 18.3815 32.0988 16.9998C32.0988 15.6182 31.9743 14.3594 31.763 13.2367C30.6403 13.0254 29.3815 12.9009 27.9998 12.9009C26.6182 12.9009 25.3594 13.0254 24.2367 13.2367C24.0254 14.3594 23.9009 15.6182 23.9009 16.9998ZM37.7987 16.9998C37.7987 16.1406 36.8588 15.1114 35.1557 14.2992C35.2508 15.1658 35.3004 16.0683 35.3004 16.9998C35.3004 17.9314 35.2508 18.8342 35.1557 19.7008C36.8591 18.8886 37.7987 17.8591 37.7987 16.9998ZM28.0002 26.7987C28.8594 26.7987 29.8886 25.8591 30.7008 24.1557C29.8342 24.2508 28.9317 24.3004 28.0002 24.3004C27.0686 24.3004 26.1658 24.2508 25.2992 24.1557C26.1114 25.8591 27.1409 26.7987 28.0002 26.7987ZM20.8443 19.7008C20.7492 18.8342 20.6996 17.9317 20.6996 16.9998C20.6996 16.0679 20.7492 15.1658 20.8443 14.2992C19.1409 15.1114 18.2013 16.1406 18.2013 16.9998C18.2013 17.8591 19.1409 18.8883 20.8443 19.7008Z" fill="#E6E6E6"/>
<path d="M63.8049 4.38907V20.1718C63.8049 21.525 63.7436 22.6866 63.6211 23.6565C63.5096 24.6263 63.3035 25.489 63.0026 26.2446C62.7017 26.9889 62.3228 27.5979 61.8659 28.0716C61.4202 28.5339 60.8296 28.9174 60.0941 29.2219C59.3698 29.5151 58.5563 29.7181 57.6536 29.8308C56.751 29.9436 55.6589 30 54.3774 30C53.1404 30 52.0874 29.9493 51.2182 29.8478C50.349 29.7463 49.5466 29.5602 48.8111 29.2895C48.0757 29.0076 47.4795 28.6411 47.0226 28.19C46.5768 27.7276 46.1924 27.1299 45.8692 26.3969C45.546 25.6526 45.3176 24.7786 45.1839 23.7749C45.0613 22.7712 45 21.5702 45 20.1718V4.38907H48.3932V20.6116C48.3932 21.5476 48.3932 22.2242 48.3932 22.6415C48.4044 23.0588 48.4378 23.5719 48.4935 24.1809C48.5493 24.7786 48.6217 25.1902 48.7108 25.4157C48.8 25.63 48.9449 25.9007 49.1454 26.2277C49.3572 26.5548 49.5912 26.7634 49.8475 26.8536C50.1149 26.9326 50.4771 27.034 50.934 27.1581C51.3909 27.2822 51.8812 27.3555 52.405 27.378C52.9399 27.3893 53.6029 27.3949 54.3941 27.3949C55.3302 27.3949 56.1102 27.3667 56.7343 27.3103C57.3695 27.254 57.9211 27.1412 58.3891 26.972C58.8571 26.8029 59.2137 26.6111 59.4589 26.3969C59.7152 26.1713 59.9158 25.8443 60.0607 25.4157C60.2167 24.9872 60.317 24.5417 60.3615 24.0794C60.4061 23.617 60.4284 23.0024 60.4284 22.2355L60.4117 4.38907H63.8049Z" fill="#E6E6E6"/>
<path d="M87.5075 29.594H83.9805L72.1125 9.6838V29.594H69.1372V4.38907H72.5638L84.5321 24.5699V4.38907H87.5075V29.594Z" fill="#E6E6E6"/>
<path d="M96.5673 29.594H93.174V4.38907H96.5673V29.594Z" fill="#E6E6E6"/>
<path d="M116.877 21.7788L119.785 22.2186C119.729 23.3012 119.635 24.226 119.501 24.9928C119.367 25.7484 119.167 26.4251 118.899 27.0228C118.643 27.6205 118.325 28.1054 117.946 28.4776C117.568 28.8384 117.077 29.1373 116.475 29.3741C115.885 29.6109 115.216 29.7745 114.47 29.8647C113.734 29.9549 112.843 30 111.795 30C110.792 30 109.895 29.9718 109.104 29.9154C108.313 29.8703 107.588 29.7632 106.931 29.594C106.285 29.4136 105.716 29.2444 105.226 29.0865C104.747 28.9174 104.318 28.6411 103.939 28.2576C103.571 27.8742 103.259 27.5303 103.003 27.2258C102.758 26.9213 102.546 26.4589 102.368 25.8386C102.2 25.2071 102.072 24.6545 101.983 24.1809C101.894 23.7072 101.822 23.0193 101.766 22.1171C101.721 21.2149 101.693 20.4255 101.682 19.7489C101.671 19.0722 101.666 18.1362 101.666 16.9408C101.666 15.6777 101.671 14.6628 101.682 13.8959C101.693 13.129 101.727 12.2945 101.783 11.3923C101.838 10.4901 101.905 9.79094 101.983 9.29473C102.072 8.79853 102.206 8.25721 102.384 7.67079C102.574 7.07309 102.785 6.63327 103.019 6.35133C103.253 6.05812 103.56 5.74236 103.939 5.40403C104.318 5.06571 104.73 4.83453 105.176 4.71047C105.633 4.57515 106.184 4.43982 106.831 4.30449C107.477 4.16916 108.168 4.08458 108.903 4.05075C109.65 4.01692 110.514 4 111.494 4C112.508 4 113.372 4.03947 114.085 4.11841C114.798 4.18608 115.467 4.32704 116.091 4.54131C116.715 4.74431 117.228 5.0206 117.629 5.3702C118.03 5.70852 118.381 6.15398 118.682 6.70657C118.994 7.25916 119.234 7.91325 119.401 8.66884C119.568 9.41314 119.69 10.3097 119.768 11.3585L116.843 11.9336C116.787 11.3585 116.737 10.8792 116.693 10.4958C116.648 10.1123 116.581 9.73455 116.492 9.36239C116.414 8.99024 116.347 8.69139 116.292 8.46584C116.247 8.22902 116.147 8.00347 115.991 7.7892C115.835 7.56365 115.707 7.39449 115.606 7.28172C115.517 7.16894 115.344 7.06181 115.088 6.96031C114.832 6.85882 114.614 6.79115 114.436 6.75732C114.269 6.71221 113.985 6.67274 113.584 6.63891C113.194 6.60507 112.854 6.58816 112.564 6.58816C112.274 6.58816 111.851 6.58816 111.294 6.58816C110.514 6.58816 109.873 6.59944 109.371 6.62199C108.881 6.63327 108.385 6.67274 107.884 6.7404C107.393 6.79679 107.003 6.88701 106.714 7.01106C106.435 7.12383 106.173 7.28172 105.928 7.48471C105.683 7.67643 105.505 7.91889 105.393 8.2121C105.293 8.49404 105.231 8.838 105.209 9.24398C105.109 12.2212 105.059 15.2605 105.059 18.3617C105.059 20.527 105.109 22.6415 105.209 24.7053C105.265 25.3481 105.443 25.8499 105.744 26.2108C106.056 26.5717 106.652 26.8593 107.533 27.0735C108.424 27.2878 109.683 27.3949 111.31 27.3949C112.18 27.3949 112.909 27.3724 113.5 27.3273C114.091 27.2709 114.587 27.1525 114.988 26.972C115.389 26.7803 115.695 26.6111 115.907 26.4645C116.119 26.3067 116.286 26.0078 116.409 25.568C116.542 25.1282 116.626 24.7617 116.659 24.4684C116.704 24.164 116.748 23.6508 116.793 22.9291C116.804 22.7712 116.81 22.6471 116.81 22.5569C116.821 22.4667 116.832 22.3483 116.843 22.2017C116.854 22.0438 116.865 21.9028 116.877 21.7788Z" fill="#E6E6E6"/>
<path d="M142 29.594H138.557L136.668 23.149H127.458L125.636 29.594H122.376L130.015 4.38907H134.545L142 29.594ZM135.966 20.7131L133.86 13.1516L132.121 6.96031C131.475 9.29473 130.906 11.3021 130.416 12.9824L128.176 20.7131H135.966Z" fill="#E6E6E6"/>
</svg>
