<svg width="150" height="34" viewBox="0 0 203 34" fill="none" xmlns="http://www.w3.org/2000/svg">
<path d="M21.8882 30C11.9923 30 6.30818 27.6238 6 21.1497H14.355C14.355 22.9404 16.2041 24.1457 21.5458 24.1457C26.9903 24.1457 28.0175 23.3881 28.0175 22.0795C28.0175 20.5642 27.093 20.2543 21.1349 19.8755L19.9364 19.8066C10.5199 19.2556 6.37666 16.9139 6.37666 11.6106C6.37666 6.54834 11.7526 4 20.2104 4C29.8666 4 35.0371 6.96159 35.3453 12.4371H26.9903C26.9903 10.543 24.7645 9.8543 20.1419 9.8543C15.7932 9.8543 14.7317 10.543 14.7317 11.6106C14.7317 12.8848 15.6562 13.3669 21.1691 13.7457L22.5731 13.849C30.9623 14.5033 36.3725 15.3987 36.3725 21.7695C36.3725 28.0026 30.9623 30 21.8882 30Z" fill="#E6E6E6"/>
<path d="M36.9982 29.3113L49.5992 4.58543H59.8718L72.4386 29.3113H63.8439L61.6866 24.7311H47.7502L45.5587 29.3113H36.9982ZM50.4895 18.9113H58.913L54.7013 10.0609L50.4895 18.9113Z" fill="#E6E6E6"/>
<path d="M75.1605 29.3113V4.58543H87.7273L95.0208 19.9788L102.28 4.58543H114.813V29.3113H106.766V12.2649L98.7532 29.3113H91.2542L83.2074 12.2649V29.3113H75.1605Z" fill="#E6E6E6"/>
<path d="M118.222 11.404V4.58543H147.465V11.404H136.884V29.3113H128.837V11.404H118.222Z" fill="#E6E6E6"/>
<path d="M150.834 29.3113V4.58543H158.881V29.3113H150.834Z" fill="#E6E6E6"/>
<path d="M173.51 29.3113L161.56 4.58543H170.12L179.263 23.8358L188.405 4.58543H197L184.981 29.3113H173.51Z" fill="#E6E6E6"/>
</svg>
