<svg width="150" height="34" viewBox="0 0 205 34" fill="none" xmlns="http://www.w3.org/2000/svg">
<path d="M9.82155 31.9052H6.5V5.95174H11.1574L26.9528 23.7767V5.95174H30.2563V31.9052H25.5989L9.82155 14.0983V31.9052Z" fill="#E6E6E6"/>
<path d="M41.9359 6.05988C41.9359 6.51647 41.8456 6.94903 41.6651 7.35756C41.4966 7.76609 41.2619 8.12054 40.9611 8.42093C40.6602 8.72132 40.3052 8.96163 39.896 9.14186C39.4868 9.31008 39.0536 9.39419 38.5963 9.39419C38.139 9.39419 37.7057 9.31008 37.2965 9.14186C36.8994 8.96163 36.5504 8.72132 36.2495 8.42093C35.9487 8.12054 35.708 7.76609 35.5275 7.35756C35.359 6.94903 35.2747 6.51647 35.2747 6.05988C35.2747 5.60329 35.359 5.17674 35.5275 4.78023C35.708 4.37171 35.9487 4.01725 36.2495 3.71686C36.5504 3.41647 36.8994 3.18217 37.2965 3.01395C37.7057 2.83372 38.139 2.7436 38.5963 2.7436C39.0536 2.7436 39.4868 2.83372 39.896 3.01395C40.3052 3.18217 40.6602 3.41647 40.9611 3.71686C41.2619 4.01725 41.4966 4.37171 41.6651 4.78023C41.8456 5.17674 41.9359 5.60329 41.9359 6.05988ZM41.6651 31.9052H35.5455V11.1064H41.6651V31.9052Z" fill="#E6E6E6"/>
<path d="M64.7354 25.2547C64.7354 26.1678 64.603 26.9789 64.3383 27.6878C64.0735 28.3967 63.7125 29.0155 63.2552 29.5442C62.7979 30.0609 62.2563 30.4994 61.6305 30.8599C61.0047 31.2083 60.3308 31.4907 59.6087 31.707C58.8986 31.9233 58.1525 32.0795 57.3703 32.1756C56.588 32.2717 55.8118 32.3198 55.0416 32.3198C54.0066 32.3198 53.0919 32.2537 52.2977 32.1215C51.5034 31.9893 50.7452 31.7791 50.0231 31.4907C49.3011 31.1903 48.579 30.8058 47.8569 30.3372C47.1469 29.8686 46.3526 29.2979 45.474 28.625L49.0303 25.7233C49.3552 26.336 49.7824 26.8948 50.312 27.3994C50.8535 27.8921 51.4131 28.3186 51.9908 28.6791C52.5684 29.0395 53.1281 29.3159 53.6696 29.5081C54.2112 29.7004 54.6504 29.7965 54.9874 29.7965C55.2642 29.7965 55.5771 29.7905 55.9261 29.7785C56.2751 29.7545 56.6301 29.7184 56.9912 29.6703C57.3522 29.6103 57.7072 29.5262 58.0562 29.418C58.4052 29.3099 58.7121 29.1657 58.9769 28.9855C59.2537 28.7932 59.4703 28.5589 59.6267 28.2826C59.7952 27.9942 59.8795 27.6517 59.8795 27.2552C59.8795 26.8467 59.7712 26.4922 59.5545 26.1919C59.3499 25.8795 59.0792 25.6091 58.7422 25.3808C58.4052 25.1525 58.0201 24.9603 57.5869 24.8041C57.1536 24.6479 56.7144 24.5097 56.2691 24.3895C55.8358 24.2694 55.4146 24.1672 55.0055 24.0831C54.5963 23.987 54.2413 23.8969 53.9404 23.8128C53.3868 23.6566 52.8031 23.5004 52.1894 23.3442C51.5756 23.176 50.9678 22.9897 50.3661 22.7855C49.7644 22.5692 49.1867 22.3169 48.6331 22.0285C48.0916 21.7401 47.6102 21.3977 47.189 21.0012C46.7798 20.5926 46.4489 20.118 46.1961 19.5773C45.9554 19.0246 45.8351 18.3818 45.8351 17.6488C45.8351 16.3031 46.0998 15.1797 46.6294 14.2785C47.1709 13.3653 47.881 12.6384 48.7595 12.0977C49.638 11.545 50.6369 11.1545 51.7561 10.9262C52.8753 10.6979 54.0126 10.5837 55.1679 10.5837C55.9622 10.5837 56.7986 10.6678 57.6771 10.836C58.5557 10.9922 59.4101 11.2326 60.2405 11.557C61.0709 11.8694 61.8471 12.2539 62.5692 12.7105C63.2913 13.1671 63.893 13.6897 64.3744 14.2785L60.8182 17.1983C60.5534 16.4773 60.2044 15.8585 59.7712 15.3419C59.3499 14.8252 58.8866 14.4047 58.3812 14.0802C57.8877 13.7438 57.3763 13.4975 56.8467 13.3413C56.3293 13.1851 55.8479 13.107 55.4026 13.107C54.9693 13.107 54.4819 13.125 53.9404 13.161C53.3988 13.1971 52.8874 13.2992 52.406 13.4674C51.9366 13.6357 51.5335 13.894 51.1965 14.2424C50.8716 14.5789 50.7091 15.0475 50.7091 15.6483C50.7091 16.0808 50.8054 16.4533 50.9979 16.7657C51.2025 17.0661 51.4673 17.3304 51.7922 17.5587C52.1171 17.775 52.4842 17.9612 52.8934 18.1174C53.3146 18.2616 53.7418 18.3938 54.1751 18.514C54.6083 18.6221 55.0295 18.7182 55.4387 18.8023C55.8479 18.8864 56.2149 18.9766 56.5399 19.0727C57.0935 19.2289 57.6771 19.3911 58.2909 19.5593C58.9167 19.7155 59.5305 19.9017 60.1322 20.118C60.7339 20.3223 61.3116 20.5686 61.8652 20.857C62.4308 21.1333 62.9242 21.4758 63.3454 21.8843C63.7666 22.2928 64.1036 22.7735 64.3563 23.3262C64.6091 23.8669 64.7354 24.5097 64.7354 25.2547Z" fill="#E6E6E6"/>
<path d="M87.8419 16.243L85.2063 17.2884C84.7851 15.9667 84.081 14.9514 83.0942 14.2424C82.1074 13.5335 80.922 13.1791 79.538 13.1791C78.7918 13.1791 78.1239 13.2992 77.5342 13.5395C76.9566 13.7678 76.4451 14.0862 75.9998 14.4948C75.5666 14.9033 75.1935 15.3779 74.8806 15.9186C74.5797 16.4593 74.333 17.036 74.1405 17.6488C73.9479 18.2616 73.8095 18.8985 73.7253 19.5593C73.641 20.2081 73.5989 20.839 73.5989 21.4517C73.5989 22.1126 73.635 22.7795 73.7072 23.4523C73.7794 24.1252 73.8998 24.774 74.0683 25.3988C74.2488 26.0116 74.4835 26.5884 74.7723 27.1291C75.0611 27.6578 75.4221 28.1203 75.8554 28.5169C76.3007 28.9134 76.8242 29.2258 77.4259 29.4541C78.0397 29.6824 78.7437 29.7965 79.538 29.7965C80.1758 29.7965 80.7836 29.7004 81.3612 29.5081C81.9389 29.3159 82.4684 29.0455 82.9498 28.6971C83.4312 28.3486 83.8584 27.9341 84.2315 27.4535C84.6045 26.9729 84.8994 26.4382 85.116 25.8494L87.7696 26.8227C87.3725 27.7719 86.843 28.595 86.1811 29.2919C85.5312 29.9767 84.7911 30.5475 83.9607 31.0041C83.1303 31.4486 82.2398 31.7791 81.289 31.9953C80.3383 32.2116 79.3755 32.3198 78.4007 32.3198C76.8242 32.3198 75.362 32.0554 74.0141 31.5267C72.6662 30.986 71.4989 30.2351 70.512 29.2738C69.5372 28.3006 68.773 27.1531 68.2194 25.8314C67.6659 24.4977 67.3891 23.0378 67.3891 21.4517C67.3891 19.8537 67.6598 18.3878 68.2014 17.0541C68.755 15.7203 69.5192 14.5729 70.494 13.6116C71.4688 12.6504 72.6301 11.9054 73.978 11.3767C75.3259 10.8481 76.8001 10.5837 78.4007 10.5837C79.4116 10.5837 80.3985 10.6979 81.3612 10.9262C82.324 11.1424 83.2146 11.4849 84.0329 11.9535C84.8633 12.4101 85.6034 12.9928 86.2533 13.7017C86.9152 14.4107 87.4447 15.2578 87.8419 16.243Z" fill="#E6E6E6"/>
<path d="M112.447 31.9052H106.345V29.418C105.623 30.4033 104.75 31.1362 103.728 31.6169C102.717 32.0855 101.603 32.3198 100.388 32.3198C98.7994 32.3198 97.3793 32.0374 96.1277 31.4727C94.8761 30.9079 93.817 30.139 92.9505 29.1657C92.0841 28.1804 91.4221 27.0269 90.9648 25.7052C90.5075 24.3835 90.2789 22.9657 90.2789 21.4517C90.2789 19.9378 90.5075 18.52 90.9648 17.1983C91.4221 15.8766 92.0841 14.7291 92.9505 13.7558C93.817 12.7705 94.8761 11.9955 96.1277 11.4308C97.3793 10.8661 98.7994 10.5837 100.388 10.5837C101.194 10.5837 101.958 10.7039 102.681 10.9442C103.415 11.1845 104.083 11.5269 104.684 11.9715C105.298 12.4041 105.834 12.9328 106.291 13.5576C106.76 14.1703 107.127 14.8552 107.392 15.6122L110.1 11.0884H112.447V31.9052ZM106.309 21.4517C106.309 20.911 106.279 20.3403 106.219 19.7395C106.171 19.1388 106.08 18.544 105.948 17.9552C105.816 17.3665 105.629 16.8078 105.388 16.2791C105.16 15.7384 104.859 15.2638 104.486 14.8552C104.125 14.4347 103.685 14.1043 103.168 13.864C102.65 13.6236 102.049 13.5035 101.363 13.5035C100.677 13.5035 100.081 13.6297 99.5756 13.882C99.0701 14.1223 98.6369 14.4527 98.2759 14.8733C97.9148 15.2818 97.614 15.7564 97.3733 16.2971C97.1446 16.8378 96.9641 17.4025 96.8317 17.9913C96.6993 18.58 96.603 19.1748 96.5429 19.7756C96.4947 20.3643 96.4707 20.9231 96.4707 21.4517C96.4707 21.9804 96.4947 22.5452 96.5429 23.1459C96.603 23.7467 96.6993 24.3415 96.8317 24.9302C96.9641 25.519 97.1446 26.0837 97.3733 26.6244C97.614 27.1651 97.9148 27.6457 98.2759 28.0663C98.6369 28.4748 99.0701 28.8052 99.5756 29.0576C100.081 29.2979 100.677 29.418 101.363 29.418C101.989 29.418 102.542 29.2919 103.024 29.0395C103.517 28.7752 103.944 28.4267 104.305 27.9942C104.678 27.5616 104.991 27.069 105.244 26.5163C105.497 25.9636 105.701 25.3928 105.858 24.8041C106.014 24.2153 106.128 23.6326 106.201 23.0558C106.273 22.4671 106.309 21.9324 106.309 21.4517Z" fill="#E6E6E6"/>
<path d="M123.657 31.9052H117.555V1.5H119.902L123.657 7.82616V31.9052Z" fill="#E6E6E6"/>
<path d="M149.742 31.9052H143.64V29.418C142.918 30.4033 142.046 31.1362 141.023 31.6169C140.012 32.0855 138.899 32.3198 137.683 32.3198C136.095 32.3198 134.674 32.0374 133.423 31.4727C132.171 30.9079 131.112 30.139 130.246 29.1657C129.379 28.1804 128.717 27.0269 128.26 25.7052C127.803 24.3835 127.574 22.9657 127.574 21.4517C127.574 19.9378 127.803 18.52 128.26 17.1983C128.717 15.8766 129.379 14.7291 130.246 13.7558C131.112 12.7705 132.171 11.9955 133.423 11.4308C134.674 10.8661 136.095 10.5837 137.683 10.5837C138.489 10.5837 139.254 10.7039 139.976 10.9442C140.71 11.1845 141.378 11.5269 141.98 11.9715C142.593 12.4041 143.129 12.9328 143.586 13.5576C144.055 14.1703 144.423 14.8552 144.687 15.6122L147.395 11.0884H149.742V31.9052ZM143.604 21.4517C143.604 20.911 143.574 20.3403 143.514 19.7395C143.466 19.1388 143.376 18.544 143.243 17.9552C143.111 17.3665 142.924 16.8078 142.684 16.2791C142.455 15.7384 142.154 15.2638 141.781 14.8552C141.42 14.4347 140.981 14.1043 140.463 13.864C139.946 13.6236 139.344 13.5035 138.658 13.5035C137.972 13.5035 137.376 13.6297 136.871 13.882C136.365 14.1223 135.932 14.4527 135.571 14.8733C135.21 15.2818 134.909 15.7564 134.668 16.2971C134.44 16.8378 134.259 17.4025 134.127 17.9913C133.995 18.58 133.898 19.1748 133.838 19.7756C133.79 20.3643 133.766 20.9231 133.766 21.4517C133.766 21.9804 133.79 22.5452 133.838 23.1459C133.898 23.7467 133.995 24.3415 134.127 24.9302C134.259 25.519 134.44 26.0837 134.668 26.6244C134.909 27.1651 135.21 27.6457 135.571 28.0663C135.932 28.4748 136.365 28.8052 136.871 29.0576C137.376 29.2979 137.972 29.418 138.658 29.418C139.284 29.418 139.837 29.2919 140.319 29.0395C140.812 28.7752 141.239 28.4267 141.6 27.9942C141.973 27.5616 142.286 27.069 142.539 26.5163C142.792 25.9636 142.996 25.3928 143.153 24.8041C143.309 24.2153 143.424 23.6326 143.496 23.0558C143.568 22.4671 143.604 21.9324 143.604 21.4517Z" fill="#E6E6E6"/>
<path d="M160.772 29.2017C160.772 29.6583 160.687 30.0909 160.519 30.4994C160.35 30.8959 160.116 31.2444 159.815 31.5448C159.514 31.8331 159.165 32.0614 158.768 32.2297C158.371 32.4099 157.943 32.5 157.486 32.5C157.029 32.5 156.602 32.4099 156.204 32.2297C155.807 32.0614 155.458 31.8331 155.157 31.5448C154.857 31.2444 154.622 30.8959 154.453 30.4994C154.285 30.0909 154.201 29.6583 154.201 29.2017C154.201 28.7572 154.285 28.3366 154.453 27.9401C154.622 27.5316 154.857 27.1831 155.157 26.8948C155.458 26.5944 155.807 26.3601 156.204 26.1919C156.602 26.0116 157.029 25.9215 157.486 25.9215C157.943 25.9215 158.371 26.0116 158.768 26.1919C159.165 26.3601 159.514 26.5944 159.815 26.8948C160.116 27.1831 160.35 27.5316 160.519 27.9401C160.687 28.3366 160.772 28.7572 160.772 29.2017Z" fill="#E6E6E6"/>
<path d="M171.621 6.05988C171.621 6.51647 171.53 6.94903 171.35 7.35756C171.181 7.76609 170.947 8.12054 170.646 8.42093C170.345 8.72132 169.99 8.96163 169.581 9.14186C169.172 9.31008 168.738 9.39419 168.281 9.39419C167.824 9.39419 167.391 9.31008 166.981 9.14186C166.584 8.96163 166.235 8.72132 165.934 8.42093C165.633 8.12054 165.393 7.76609 165.212 7.35756C165.044 6.94903 164.96 6.51647 164.96 6.05988C164.96 5.60329 165.044 5.17674 165.212 4.78023C165.393 4.37171 165.633 4.01725 165.934 3.71686C166.235 3.41647 166.584 3.18217 166.981 3.01395C167.391 2.83372 167.824 2.7436 168.281 2.7436C168.738 2.7436 169.172 2.83372 169.581 3.01395C169.99 3.18217 170.345 3.41647 170.646 3.71686C170.947 4.01725 171.181 4.37171 171.35 4.78023C171.53 5.17674 171.621 5.60329 171.621 6.05988ZM171.35 31.9052H165.23V11.1064H171.35V31.9052Z" fill="#E6E6E6"/>
<path d="M198.5 21.4517C198.5 22.5331 198.356 23.5485 198.067 24.4977C197.778 25.4469 197.375 26.324 196.857 27.1291C196.352 27.9341 195.738 28.661 195.016 29.3099C194.294 29.9467 193.5 30.4874 192.633 30.932C191.779 31.3766 190.858 31.719 189.871 31.9593C188.896 32.1996 187.891 32.3198 186.857 32.3198C185.822 32.3198 184.817 32.1996 183.842 31.9593C182.867 31.719 181.946 31.3766 181.08 30.932C180.225 30.4874 179.437 29.9467 178.715 29.3099C177.993 28.661 177.373 27.9341 176.856 27.1291C176.35 26.324 175.953 25.4469 175.664 24.4977C175.376 23.5364 175.231 22.5211 175.231 21.4517C175.231 20.3824 175.376 19.3731 175.664 18.4238C175.953 17.4626 176.35 16.5795 176.856 15.7744C177.373 14.9694 177.993 14.2485 178.715 13.6116C179.437 12.9628 180.225 12.4161 181.08 11.9715C181.946 11.5269 182.867 11.1845 183.842 10.9442C184.817 10.7039 185.822 10.5837 186.857 10.5837C187.891 10.5837 188.896 10.7039 189.871 10.9442C190.858 11.1845 191.779 11.5269 192.633 11.9715C193.5 12.4161 194.294 12.9628 195.016 13.6116C195.738 14.2485 196.352 14.9694 196.857 15.7744C197.375 16.5795 197.778 17.4626 198.067 18.4238C198.356 19.3731 198.5 20.3824 198.5 21.4517ZM192.29 21.4517C192.29 20.875 192.254 20.2682 192.182 19.6314C192.122 18.9826 192.013 18.3517 191.857 17.739C191.7 17.1141 191.484 16.5194 191.207 15.9547C190.942 15.3779 190.611 14.8793 190.214 14.4587C189.817 14.0262 189.342 13.6837 188.788 13.4314C188.234 13.1671 187.591 13.0349 186.857 13.0349C186.159 13.0349 185.539 13.1671 184.997 13.4314C184.456 13.6957 183.98 14.0502 183.571 14.4948C183.174 14.9273 182.837 15.432 182.56 16.0087C182.295 16.5855 182.079 17.1862 181.91 17.811C181.742 18.4238 181.621 19.0486 181.549 19.6855C181.477 20.3103 181.441 20.899 181.441 21.4517C181.441 22.0045 181.477 22.5992 181.549 23.236C181.621 23.8609 181.742 24.4857 181.91 25.1105C182.079 25.7353 182.295 26.336 182.56 26.9128C182.837 27.4775 183.174 27.9822 183.571 28.4267C183.98 28.8593 184.456 29.2078 184.997 29.4721C185.539 29.7364 186.159 29.8686 186.857 29.8686C187.579 29.8686 188.216 29.7424 188.77 29.4901C189.324 29.2258 189.799 28.8773 190.196 28.4448C190.605 28.0122 190.942 27.5136 191.207 26.9488C191.472 26.3841 191.682 25.7893 191.839 25.1645C192.007 24.5397 192.122 23.9089 192.182 23.2721C192.254 22.6353 192.29 22.0285 192.29 21.4517Z" fill="#E6E6E6"/>
</svg>
