<svg width="150" height="34" viewBox="0 0 190 34" fill="none" xmlns="http://www.w3.org/2000/svg">
<path d="M8.5 1H19.0654V33H8.5V1Z" fill="#E6E6E6"/>
<path d="M24.348 1H29.6307V33H24.348V1Z" fill="#E6E6E6"/>
<path d="M59.6456 18.04C63.6605 18.04 65.6679 19.3289 65.6679 21.9067C65.6679 23.1156 65.395 24.1467 64.8491 25C64.3032 25.8356 63.3259 26.4933 61.9172 26.9733C60.5085 27.4356 58.5539 27.6667 56.0534 27.6667H44.1674C44.3083 24.2178 44.3787 20.9911 44.3787 17.9867C44.3787 14.9822 44.3083 11.7556 44.1674 8.30667H50.3745V8.33333H56.0006C58.1841 8.33333 59.901 8.52 61.1512 8.89333C62.4191 9.24889 63.3083 9.77333 63.819 10.4667C64.3472 11.16 64.6114 12.04 64.6114 13.1067C64.6114 14.1911 64.2328 15.16 63.4756 16.0133C62.736 16.8489 61.4594 17.5244 59.6456 18.04ZM50.3745 13.1867V15.6667H55.4459C56.5377 15.6667 57.2948 15.5689 57.7175 15.3733C58.1577 15.1778 58.3778 14.8222 58.3778 14.3067C58.3778 13.8978 58.1489 13.6133 57.6911 13.4533C57.2508 13.2756 56.5025 13.1867 55.4459 13.1867H50.3745ZM55.4459 22.7867C56.3616 22.7867 57.0571 22.7511 57.5326 22.68C58.0256 22.5911 58.3778 22.4489 58.5891 22.2533C58.8004 22.04 58.9061 21.7556 58.9061 21.4C58.9061 20.9378 58.6507 20.6089 58.1401 20.4133C57.647 20.2 56.749 20.0933 55.4459 20.0933H50.3745V22.7867H55.4459Z" fill="#E6E6E6"/>
<path d="M79.5232 27.9333C75.4907 27.9333 72.5236 27.0533 70.6219 25.2933C68.7201 23.5156 67.7692 21.0267 67.7692 17.8267C67.7692 14.6622 68.7113 12.1911 70.5954 10.4133C72.4972 8.63556 75.4731 7.74667 79.5232 7.74667C83.5908 7.74667 86.5668 8.63556 88.4509 10.4133C90.3527 12.1911 91.3036 14.6622 91.3036 17.8267C91.3036 21.0444 90.3615 23.5333 88.4773 25.2933C86.5932 27.0533 83.6085 27.9333 79.5232 27.9333ZM79.5232 22.4933C81.4778 22.4933 82.8865 22.12 83.7493 21.3733C84.6122 20.6089 85.0436 19.4267 85.0436 17.8267C85.0436 16.2622 84.6122 15.0978 83.7493 14.3333C82.8865 13.5689 81.4778 13.1867 79.5232 13.1867C77.5862 13.1867 76.1863 13.5689 75.3234 14.3333C74.4606 15.0978 74.0292 16.2622 74.0292 17.8267C74.0292 19.4089 74.4606 20.5822 75.3234 21.3467C76.1863 22.1111 77.5862 22.4933 79.5232 22.4933Z" fill="#E6E6E6"/>
<path d="M107.197 27.6667C106.369 26.1556 104.995 23.8444 103.076 20.7333L99.9857 23.8267V27.6667H93.4088C93.5497 24.2178 93.6201 20.9911 93.6201 17.9867C93.6201 14.9822 93.5497 11.7556 93.4088 8.30667H99.9857V16.12C103.226 12.8844 105.533 10.28 106.906 8.30667H115.464L107.144 16.6267C108.376 18.3689 109.759 20.2622 111.291 22.3067C112.84 24.3511 114.24 26.1378 115.49 27.6667H107.197Z" fill="#E6E6E6"/>
<path d="M132.95 13.6133C130.855 13.5067 129.305 13.4444 128.301 13.4267V22.5467C129.323 22.5289 130.872 22.4667 132.95 22.36V27.6667H117.604V22.36C119.629 22.4667 121.17 22.5289 122.226 22.5467V13.4267C121.17 13.4444 119.629 13.5067 117.604 13.6133V8.30667H132.95V13.6133Z" fill="#E6E6E6"/>
<path d="M157.228 8.33333C157.104 11.3378 157.043 14.5556 157.043 17.9867C157.043 21.4356 157.104 24.6622 157.228 27.6667H147.772L141.379 13.1067L141.855 27.6667H135.067C135.208 24.2178 135.278 20.9911 135.278 17.9867C135.278 15 135.208 11.7822 135.067 8.33333H144.787L151.205 23.2933L150.756 8.33333H157.228Z" fill="#E6E6E6"/>
<path d="M170.221 16.6267H181.5V27.6667H176.851L176.297 22.9467C175.768 24.6356 174.826 25.8889 173.47 26.7067C172.114 27.5244 170.459 27.9333 168.505 27.9333C166.726 27.9333 165.141 27.5333 163.75 26.7333C162.377 25.9333 161.294 24.7867 160.501 23.2933C159.727 21.8 159.339 20.0578 159.339 18.0667C159.339 14.8844 160.281 12.3689 162.165 10.52C164.05 8.67111 166.981 7.74667 170.961 7.74667C173.233 7.74667 175.231 8.12 176.957 8.86667C178.7 9.61333 180.179 10.7689 181.394 12.3333C180.602 12.7422 179.052 13.56 176.746 14.7867L176.085 15.16C175.398 14.4667 174.597 13.9511 173.682 13.6133C172.766 13.2578 171.797 13.08 170.776 13.08C169.086 13.08 167.827 13.5333 166.999 14.44C166.171 15.3289 165.758 16.4311 165.758 17.7467C165.758 19.1689 166.198 20.3156 167.078 21.1867C167.976 22.0578 169.341 22.4933 171.172 22.4933C171.965 22.4933 172.731 22.3778 173.47 22.1467C174.227 21.9156 174.861 21.5156 175.372 20.9467H170.221V16.6267Z" fill="#E6E6E6"/>
</svg>
